<svg role="img" viewBox="0 0 260.366 260.366" xmlns="http://www.w3.org/2000/svg" class="icon">
  <title>LinkedIn</title>
  <g fill="currentColor">
    <circle cx="34.703" cy="34.884" r="34.704"/>
    <rect x="4.166" y="83.531" width="56.905" height="176.183" rx="4.489"/>
    <path d="M193.924 81.557c-19.064 0-35.817 5.805-46.04 15.271V88.02a4.489 4.489 0 0 0-4.489-4.489H93.424a4.489 4.489 0 0 0-4.489 4.489v167.675a4.489 4.489 0 0 0 4.489 4.488h52.044a4.489 4.489 0 0 0 4.489-4.488v-82.957c0-23.802 4.378-38.555 26.227-38.555 21.526.026 23.137 15.846 23.137 39.977v81.535a4.489 4.489 0 0 0 4.49 4.488h52.068a4.489 4.489 0 0 0 4.488-4.488v-91.977c0-37.089-7.552-81-66.442-81z"/>
  </g>
</svg>
